<svg width="50" height="49" viewBox="0 0 50 49" fill="none" xmlns="http://www.w3.org/2000/svg">
<path d="M24.5526 49C38.1127 49 49.1053 38.031 49.1053 24.5C49.1053 10.969 38.1127 0 24.5526 0C10.9926 0 0 10.969 0 24.5C0 38.031 10.9926 49 24.5526 49Z" fill="#0029FF"/>
<path d="M13.9131 26.1333C15.2692 26.1333 16.3684 25.0364 16.3684 23.6833C16.3684 22.3302 15.2692 21.2333 13.9131 21.2333C12.5571 21.2333 11.4579 22.3302 11.4579 23.6833C11.4579 25.0364 12.5571 26.1333 13.9131 26.1333Z" fill="white"/>
<path opacity="0.1" d="M15.55 19.6C16.906 19.6 18.0053 18.5031 18.0053 17.15C18.0053 15.7969 16.906 14.7 15.55 14.7C14.194 14.7 13.0947 15.7969 13.0947 17.15C13.0947 18.5031 14.194 19.6 15.55 19.6Z" fill="white"/>
<path opacity="0.1" d="M15.55 32.6667C16.906 32.6667 18.0053 31.5698 18.0053 30.2167C18.0053 28.8636 16.906 27.7667 15.55 27.7667C14.194 27.7667 13.0947 28.8636 13.0947 30.2167C13.0947 31.5698 14.194 32.6667 15.55 32.6667Z" fill="white"/>
<path opacity="0.1" d="M35.1921 32.6667C36.5481 32.6667 37.6473 31.5698 37.6473 30.2167C37.6473 28.8636 36.5481 27.7667 35.1921 27.7667C33.8361 27.7667 32.7368 28.8636 32.7368 30.2167C32.7368 31.5698 33.8361 32.6667 35.1921 32.6667Z" fill="white"/>
<path opacity="0.1" d="M35.1921 19.6C36.5481 19.6 37.6473 18.5031 37.6473 17.15C37.6473 15.7969 36.5481 14.7 35.1921 14.7C33.8361 14.7 32.7368 15.7969 32.7368 17.15C32.7368 18.5031 33.8361 19.6 35.1921 19.6Z" fill="white"/>
<path d="M20.4605 37.5667C21.8165 37.5667 22.9158 36.4698 22.9158 35.1167C22.9158 33.7636 21.8165 32.6667 20.4605 32.6667C19.1045 32.6667 18.0052 33.7636 18.0052 35.1167C18.0052 36.4698 19.1045 37.5667 20.4605 37.5667Z" fill="white"/>
<path d="M30.2816 37.5667C31.6376 37.5667 32.7368 36.4698 32.7368 35.1167C32.7368 33.7636 31.6376 32.6667 30.2816 32.6667C28.9256 32.6667 27.8263 33.7636 27.8263 35.1167C27.8263 36.4698 28.9256 37.5667 30.2816 37.5667Z" fill="white"/>
<path d="M36.829 26.1333C38.185 26.1333 39.2842 25.0364 39.2842 23.6833C39.2842 22.3302 38.185 21.2333 36.829 21.2333C35.473 21.2333 34.3737 22.3302 34.3737 23.6833C34.3737 25.0364 35.473 26.1333 36.829 26.1333Z" fill="white"/>
<path d="M25.371 26.1333C26.727 26.1333 27.8263 25.0364 27.8263 23.6833C27.8263 22.3302 26.727 21.2333 25.371 21.2333C24.015 21.2333 22.9158 22.3302 22.9158 23.6833C22.9158 25.0364 24.015 26.1333 25.371 26.1333Z" fill="white"/>
<path d="M30.2816 14.7C31.6376 14.7 32.7368 13.6031 32.7368 12.25C32.7368 10.8969 31.6376 9.79999 30.2816 9.79999C28.9256 9.79999 27.8263 10.8969 27.8263 12.25C27.8263 13.6031 28.9256 14.7 30.2816 14.7Z" fill="white"/>
<path d="M20.4605 14.7C21.8165 14.7 22.9158 13.6031 22.9158 12.25C22.9158 10.8969 21.8165 9.79999 20.4605 9.79999C19.1045 9.79999 18.0052 10.8969 18.0052 12.25C18.0052 13.6031 19.1045 14.7 20.4605 14.7Z" fill="white"/>
<path d="M13.9131 23.6833H25.371L30.2816 35.1167H20.4605" stroke="white"/>
<path d="M20.4605 12.25H30.2816" stroke="white"/>
</svg>
