<svg width="40" height="40" viewBox="0 0 40 40" fill="none" xmlns="http://www.w3.org/2000/svg">
<circle cx="20" cy="20" r="20" fill="#3683F0"/>
<path d="M19.2031 17.2402L13.8125 21.6934V26.4688C13.8125 26.7324 14.0176 26.9375 14.2812 26.9375H17.5625C17.7969 26.9375 18.002 26.7324 18.002 26.4688V23.6562C18.002 23.4219 18.2363 23.1875 18.4707 23.1875H20.3457C20.6094 23.1875 20.8145 23.4219 20.8145 23.6562V26.4688C20.8145 26.7324 21.0488 26.9375 21.2832 26.9375H24.5938C24.8281 26.9375 25.0625 26.7324 25.0625 26.4688V21.6641L19.6426 17.2402C19.584 17.1816 19.4961 17.1523 19.4375 17.1523C19.3496 17.1523 19.2617 17.1816 19.2031 17.2402ZM27.7285 20.2578L25.2969 18.2363V14.1934C25.2969 13.9883 25.1211 13.8418 24.9453 13.8418H23.3047C23.0996 13.8418 22.9531 13.9883 22.9531 14.1934V16.3027L20.3164 14.1348C20.082 13.959 19.7598 13.8418 19.4375 13.8418C19.0859 13.8418 18.7637 13.959 18.5293 14.1348L11.1172 20.2578C11.0293 20.3164 10.9707 20.4336 10.9707 20.5215C10.9707 20.6094 11.0293 20.6973 11.0586 20.7559L11.8203 21.6641C11.8789 21.752 11.9668 21.7812 12.084 21.7812C12.1719 21.7812 12.2598 21.752 12.3184 21.6934L19.2031 16.0391C19.2617 15.9805 19.3496 15.9512 19.4375 15.9512C19.4961 15.9512 19.584 15.9805 19.6426 16.0391L26.5273 21.6934C26.5859 21.752 26.6738 21.7812 26.7617 21.7812C26.8789 21.7812 26.9668 21.752 27.0254 21.6641L27.7871 20.7559C27.8457 20.6973 27.875 20.6094 27.875 20.5215C27.875 20.4336 27.8164 20.3164 27.7285 20.2578Z" fill="white"/>
</svg>
