<svg width="40" height="40" viewBox="0 0 40 40" fill="none" xmlns="http://www.w3.org/2000/svg">
<ellipse cx="16.6923" cy="11.5083" rx="16.6923" ry="11.2508" fill="white"/>
<path d="M20 0C8.97212 0 0 8.97212 0 20C0 31.0279 8.97212 40 20 40C31.0279 40 40 31.0279 40 20C40 8.97212 31.0279 0 20 0ZM20 32.3077C17.9904 32.3077 16.3923 31.4558 16.1779 29.6558C16.1722 29.602 16.1779 29.5476 16.1947 29.4962C16.2115 29.4447 16.2389 29.3974 16.2752 29.3573C16.3115 29.3172 16.3558 29.2852 16.4054 29.2634C16.4549 29.2416 16.5084 29.2305 16.5625 29.2308H23.4327C23.4873 29.2304 23.5414 29.2416 23.5914 29.2638C23.6413 29.2859 23.686 29.3185 23.7224 29.3592C23.7588 29.4 23.7861 29.448 23.8024 29.5001C23.8188 29.5523 23.8239 29.6073 23.8173 29.6615C23.5721 31.4279 21.9885 32.3077 20 32.3077ZM29.4231 27.6923H10.5769C9.43846 27.6923 8.84615 26.25 9.50096 25.4808C11.0712 23.6212 12.1808 22.8394 12.1808 17.7115C12.1808 13.0125 14.6558 11.3452 16.7 10.5317C16.8407 10.4731 16.9675 10.3857 17.0723 10.275C17.1772 10.1644 17.2577 10.0331 17.3087 9.88942C17.6635 8.71154 18.6673 7.69231 20 7.69231C21.3327 7.69231 22.3346 8.71154 22.6923 9.89038C22.7436 10.034 22.8243 10.1653 22.9293 10.2759C23.0343 10.3865 23.1612 10.474 23.3019 10.5327C25.3413 11.3442 27.8212 13.0144 27.8212 17.7125C27.8212 22.8404 28.9298 23.6221 30.5 25.4817C31.1481 26.25 30.5548 27.6923 29.4231 27.6923V27.6923Z" fill="#3683F0"/>
<ellipse cx="28.4218" cy="12.8739" rx="4.53444" ry="4.53441" fill="#FF2C55"/>
</svg>
