<svg width="40" height="40" viewBox="0 0 40 40" fill="none" xmlns="http://www.w3.org/2000/svg">
<circle cx="20" cy="20" r="20" fill="#3683F0"/>
<path d="M26.6777 24.4766L23.25 21.0488C22.5469 20.375 21.5508 20.2285 20.7305 20.6387L17.625 17.5332V15.6875L13.875 12.875L12 14.75L14.8125 18.5H16.6289L19.7344 21.6348C19.3535 22.4551 19.4707 23.4512 20.1445 24.125L23.5723 27.582C24.0117 27.9922 24.6855 27.9922 25.125 27.582L26.6777 26.0293C27.0879 25.5898 27.0879 24.916 26.6777 24.4766ZM21.6973 19.4668C22.5469 19.4668 23.3086 19.7891 23.8945 20.375L24.4805 20.9609C24.9199 20.7559 25.3594 20.4629 25.7402 20.082C26.8242 18.998 27.2051 17.4746 26.8535 16.0977C26.7949 15.834 26.4727 15.7461 26.2676 15.9219L24.0996 18.1191L22.1074 17.7676L21.7852 15.7754L23.9531 13.6074C24.1582 13.4023 24.041 13.0801 23.7773 13.0215C22.4004 12.6699 20.877 13.0508 19.793 14.1348C18.9434 14.9551 18.5625 16.0684 18.5625 17.1523L20.9941 19.5547C21.2285 19.4961 21.4629 19.4668 21.6973 19.4668ZM18.6504 21.8691L17.0098 20.2285L12.5273 24.6816C11.7949 25.4141 11.7949 26.6152 12.5273 27.3477C13.2598 28.0801 14.4609 28.0801 15.1934 27.3477L18.7969 23.7148C18.5918 23.1289 18.5039 22.5137 18.6504 21.8691ZM13.875 26.7031C13.4648 26.7031 13.1719 26.4102 13.1719 26C13.1719 25.6191 13.4648 25.2969 13.875 25.2969C14.2559 25.2969 14.5781 25.6191 14.5781 26C14.5781 26.4102 14.2559 26.7031 13.875 26.7031Z" fill="white"/>
</svg>
